<?xml version="1.0" encoding="UTF-8" standalone="no"?>
<!DOCTYPE svg PUBLIC "-//W3C//DTD SVG 1.1//EN"
 "http://www.w3.org/Graphics/SVG/1.1/DTD/svg11.dtd">
<!-- Generated by graphviz version 2.38.0 (20140413.2041)
 -->
<!-- Title: models_diagram Pages: 1 -->
<svg width="553pt" height="158pt"
 viewBox="0.00 0.00 553.34 158.00" xmlns="http://www.w3.org/2000/svg" xmlns:xlink="http://www.w3.org/1999/xlink">
<g id="graph0" class="graph" transform="scale(1 1) rotate(0) translate(4 154)">
<title>models_diagram</title>
<polygon fill="none" stroke="none" points="-4,4 -4,-154 549.343,-154 549.343,4 -4,4"/>
<!-- _diagram_info -->
<g id="node1" class="node"><title>_diagram_info</title>
<text text-anchor="start" x="8" y="-135.6" font-family="Times,serif" font-size="13.00">Models diagram</text>
<text text-anchor="start" x="8" y="-121.6" font-family="Times,serif" font-size="13.00">Date: Sep 11 2017 &#45; 11:28</text>
<text text-anchor="start" x="8" y="-107.6" font-family="Times,serif" font-size="13.00">Migration version: 20170911142804</text>
<text text-anchor="start" x="8" y="-93.6" font-family="Times,serif" font-size="13.00">Generated by RailRoady 1.5.3</text>
<text text-anchor="start" x="8" y="-79.6" font-family="Times,serif" font-size="13.00">http://railroady.prestonlee.com</text>
</g>
<!-- UserSong -->
<g id="node2" class="node"><title>UserSong</title>
<ellipse fill="none" stroke="black" cx="259" cy="-18" rx="45.4919" ry="18"/>
<text text-anchor="middle" x="259" y="-14.3" font-family="Times,serif" font-size="14.00">UserSong</text>
</g>
<!-- ApplicationRecord -->
<g id="node3" class="node"><title>ApplicationRecord</title>
<ellipse fill="none" stroke="black" cx="468" cy="-111" rx="77.1866" ry="18"/>
<text text-anchor="middle" x="468" y="-107.3" font-family="Times,serif" font-size="14.00">ApplicationRecord</text>
</g>
<!-- Genre -->
<g id="node4" class="node"><title>Genre</title>
<ellipse fill="none" stroke="black" cx="355" cy="-18" rx="32.4942" ry="18"/>
<text text-anchor="middle" x="355" y="-14.3" font-family="Times,serif" font-size="14.00">Genre</text>
</g>
<!-- Song -->
<g id="node5" class="node"><title>Song</title>
<ellipse fill="none" stroke="black" cx="344" cy="-111" rx="28.6953" ry="18"/>
<text text-anchor="middle" x="344" y="-107.3" font-family="Times,serif" font-size="14.00">Song</text>
</g>
<!-- Song&#45;&gt;UserSong -->
<g id="edge1" class="edge"><title>Song&#45;&gt;UserSong</title>
<path fill="none" stroke="#bdc21e" d="M324.21,-88.8129C311.338,-75.0326 294.531,-57.0396 281.204,-42.7717"/>
<ellipse fill="none" stroke="#bdc21e" cx="327.234" cy="-92.05" rx="4.00002" ry="4.00002"/>
<polygon fill="#bdc21e" stroke="#bdc21e" points="281.032,-42.5867 277.494,-32.2071 277.619,-38.9328 274.205,-35.2788 274.205,-35.2788 274.205,-35.2788 277.619,-38.9328 270.917,-38.3506 281.032,-42.5867 281.032,-42.5867"/>
</g>
<!-- Song&#45;&gt;Genre -->
<g id="edge2" class="edge"><title>Song&#45;&gt;Genre</title>
<path fill="none" stroke="#2b5550" d="M347.055,-84.7285C348.506,-72.7246 350.242,-58.3622 351.721,-46.1291"/>
<ellipse fill="none" stroke="#2b5550" cx="346.549" cy="-88.9125" rx="4.00001" ry="4.00001"/>
<polygon fill="#2b5550" stroke="#2b5550" points="351.74,-45.9674 357.408,-36.5797 352.34,-41.0035 352.94,-36.0397 352.94,-36.0397 352.94,-36.0397 352.34,-41.0035 348.473,-35.4996 351.74,-45.9674 351.74,-45.9674"/>
</g>
<!-- User -->
<g id="node6" class="node"><title>User</title>
<ellipse fill="none" stroke="black" cx="259" cy="-111" rx="27.0966" ry="18"/>
<text text-anchor="middle" x="259" y="-107.3" font-family="Times,serif" font-size="14.00">User</text>
</g>
<!-- User&#45;&gt;UserSong -->
<g id="edge3" class="edge"><title>User&#45;&gt;UserSong</title>
<path fill="none" stroke="#8a2e1a" d="M259,-84.7285C259,-72.7246 259,-58.3622 259,-46.1291"/>
<ellipse fill="none" stroke="#8a2e1a" cx="259" cy="-88.8836" rx="4" ry="4"/>
<polygon fill="#8a2e1a" stroke="#8a2e1a" points="259,-46.0397 263.5,-36.0396 259,-41.0397 259,-36.0397 259,-36.0397 259,-36.0397 259,-41.0397 254.5,-36.0397 259,-46.0397 259,-46.0397"/>
</g>
</g>
</svg>
