<?xml version="1.0" encoding="UTF-8" standalone="no"?>
<!DOCTYPE svg PUBLIC "-//W3C//DTD SVG 1.1//EN"
 "http://www.w3.org/Graphics/SVG/1.1/DTD/svg11.dtd">
<!-- Generated by graphviz version 2.38.0 (20140413.2041)
 -->
<!-- Title: models_diagram Pages: 1 -->
<svg width="988pt" height="378pt"
 viewBox="0.00 0.00 988.34 378.00" xmlns="http://www.w3.org/2000/svg" xmlns:xlink="http://www.w3.org/1999/xlink">
<g id="graph0" class="graph" transform="scale(1 1) rotate(0) translate(4 374)">
<title>models_diagram</title>
<polygon fill="none" stroke="none" points="-4,4 -4,-374 984.343,-374 984.343,4 -4,4"/>
<!-- _diagram_info -->
<g id="node1" class="node"><title>_diagram_info</title>
<text text-anchor="start" x="8" y="-281.1" font-family="Times,serif" font-size="13.00">Models diagram</text>
<text text-anchor="start" x="8" y="-267.1" font-family="Times,serif" font-size="13.00">Date: Sep 11 2017 &#45; 11:28</text>
<text text-anchor="start" x="8" y="-253.1" font-family="Times,serif" font-size="13.00">Migration version: 20170911142804</text>
<text text-anchor="start" x="8" y="-239.1" font-family="Times,serif" font-size="13.00">Generated by RailRoady 1.5.3</text>
<text text-anchor="start" x="8" y="-225.1" font-family="Times,serif" font-size="13.00">http://railroady.prestonlee.com</text>
</g>
<!-- UserSong -->
<g id="node2" class="node"><title>UserSong</title>
<path fill="none" stroke="black" d="M297,-0.5C297,-0.5 517,-0.5 517,-0.5 523,-0.5 529,-6.5 529,-12.5 529,-12.5 529,-94.5 529,-94.5 529,-100.5 523,-106.5 517,-106.5 517,-106.5 297,-106.5 297,-106.5 291,-106.5 285,-100.5 285,-94.5 285,-94.5 285,-12.5 285,-12.5 285,-6.5 291,-0.5 297,-0.5"/>
<text text-anchor="middle" x="407" y="-91.3" font-family="Times,serif" font-size="14.00">UserSong</text>
<polyline fill="none" stroke="black" points="285,-83.5 529,-83.5 "/>
<text text-anchor="start" x="293" y="-68.3" font-family="Times,serif" font-size="14.00">id :integer</text>
<text text-anchor="start" x="293" y="-53.3" font-family="Times,serif" font-size="14.00">song_id :integer</text>
<text text-anchor="start" x="293" y="-38.3" font-family="Times,serif" font-size="14.00">user_id :integer</text>
<text text-anchor="start" x="293" y="-23.3" font-family="Times,serif" font-size="14.00">created_at :timestamp without time zone</text>
<text text-anchor="start" x="293" y="-8.3" font-family="Times,serif" font-size="14.00">updated_at :timestamp without time zone</text>
</g>
<!-- ApplicationRecord -->
<g id="node3" class="node"><title>ApplicationRecord</title>
<ellipse fill="none" stroke="black" cx="903" cy="-256.5" rx="77.1866" ry="18"/>
<text text-anchor="middle" x="903" y="-252.8" font-family="Times,serif" font-size="14.00">ApplicationRecord</text>
</g>
<!-- Genre -->
<g id="node4" class="node"><title>Genre</title>
<path fill="none" stroke="black" d="M576,-0.5C576,-0.5 796,-0.5 796,-0.5 802,-0.5 808,-6.5 808,-12.5 808,-12.5 808,-94.5 808,-94.5 808,-100.5 802,-106.5 796,-106.5 796,-106.5 576,-106.5 576,-106.5 570,-106.5 564,-100.5 564,-94.5 564,-94.5 564,-12.5 564,-12.5 564,-6.5 570,-0.5 576,-0.5"/>
<text text-anchor="middle" x="686" y="-91.3" font-family="Times,serif" font-size="14.00">Genre</text>
<polyline fill="none" stroke="black" points="564,-83.5 808,-83.5 "/>
<text text-anchor="start" x="572" y="-68.3" font-family="Times,serif" font-size="14.00">id :integer</text>
<text text-anchor="start" x="572" y="-53.3" font-family="Times,serif" font-size="14.00">name :character varying</text>
<text text-anchor="start" x="572" y="-38.3" font-family="Times,serif" font-size="14.00">song_id :integer</text>
<text text-anchor="start" x="572" y="-23.3" font-family="Times,serif" font-size="14.00">created_at :timestamp without time zone</text>
<text text-anchor="start" x="572" y="-8.3" font-family="Times,serif" font-size="14.00">updated_at :timestamp without time zone</text>
</g>
<!-- Song -->
<g id="node5" class="node"><title>Song</title>
<path fill="none" stroke="black" d="M576,-203.5C576,-203.5 796,-203.5 796,-203.5 802,-203.5 808,-209.5 808,-215.5 808,-215.5 808,-297.5 808,-297.5 808,-303.5 802,-309.5 796,-309.5 796,-309.5 576,-309.5 576,-309.5 570,-309.5 564,-303.5 564,-297.5 564,-297.5 564,-215.5 564,-215.5 564,-209.5 570,-203.5 576,-203.5"/>
<text text-anchor="middle" x="686" y="-294.3" font-family="Times,serif" font-size="14.00">Song</text>
<polyline fill="none" stroke="black" points="564,-286.5 808,-286.5 "/>
<text text-anchor="start" x="572" y="-271.3" font-family="Times,serif" font-size="14.00">id :integer</text>
<text text-anchor="start" x="572" y="-256.3" font-family="Times,serif" font-size="14.00">name :character varying</text>
<text text-anchor="start" x="572" y="-241.3" font-family="Times,serif" font-size="14.00">duration :integer</text>
<text text-anchor="start" x="572" y="-226.3" font-family="Times,serif" font-size="14.00">created_at :timestamp without time zone</text>
<text text-anchor="start" x="572" y="-211.3" font-family="Times,serif" font-size="14.00">updated_at :timestamp without time zone</text>
</g>
<!-- Song&#45;&gt;UserSong -->
<g id="edge1" class="edge"><title>Song&#45;&gt;UserSong</title>
<path fill="none" stroke="#0ecf8e" d="M623.527,-198.058C602.392,-179.666 578.246,-159.745 555,-143 540.345,-132.444 524.379,-121.948 508.532,-112.07"/>
<ellipse fill="none" stroke="#0ecf8e" cx="626.684" cy="-200.821" rx="4.00002" ry="4.00002"/>
<polygon fill="#0ecf8e" stroke="#0ecf8e" points="508.259,-111.902 502.113,-102.821 504.004,-109.276 499.75,-106.65 499.75,-106.65 499.75,-106.65 504.004,-109.276 497.386,-110.479 508.259,-111.902 508.259,-111.902"/>
</g>
<!-- Song&#45;&gt;Genre -->
<g id="edge2" class="edge"><title>Song&#45;&gt;Genre</title>
<path fill="none" stroke="#6995c9" d="M686,-195.28C686,-170.483 686,-141.765 686,-116.759"/>
<ellipse fill="none" stroke="#6995c9" cx="686" cy="-199.476" rx="4" ry="4"/>
<polygon fill="#6995c9" stroke="#6995c9" points="686,-116.655 690.5,-106.655 686,-111.655 686,-106.655 686,-106.655 686,-106.655 686,-111.655 681.5,-106.655 686,-116.655 686,-116.655"/>
</g>
<!-- User -->
<g id="node6" class="node"><title>User</title>
<path fill="none" stroke="black" d="M244.5,-143.5C244.5,-143.5 533.5,-143.5 533.5,-143.5 539.5,-143.5 545.5,-149.5 545.5,-155.5 545.5,-155.5 545.5,-357.5 545.5,-357.5 545.5,-363.5 539.5,-369.5 533.5,-369.5 533.5,-369.5 244.5,-369.5 244.5,-369.5 238.5,-369.5 232.5,-363.5 232.5,-357.5 232.5,-357.5 232.5,-155.5 232.5,-155.5 232.5,-149.5 238.5,-143.5 244.5,-143.5"/>
<text text-anchor="middle" x="389" y="-354.3" font-family="Times,serif" font-size="14.00">User</text>
<polyline fill="none" stroke="black" points="232.5,-346.5 545.5,-346.5 "/>
<text text-anchor="start" x="240.5" y="-331.3" font-family="Times,serif" font-size="14.00">id :integer</text>
<text text-anchor="start" x="240.5" y="-316.3" font-family="Times,serif" font-size="14.00">email :character varying</text>
<text text-anchor="start" x="240.5" y="-301.3" font-family="Times,serif" font-size="14.00">encrypted_password :character varying</text>
<text text-anchor="start" x="240.5" y="-286.3" font-family="Times,serif" font-size="14.00">reset_password_token :character varying</text>
<text text-anchor="start" x="240.5" y="-271.3" font-family="Times,serif" font-size="14.00">reset_password_sent_at :timestamp without time zone</text>
<text text-anchor="start" x="240.5" y="-256.3" font-family="Times,serif" font-size="14.00">remember_created_at :timestamp without time zone</text>
<text text-anchor="start" x="240.5" y="-241.3" font-family="Times,serif" font-size="14.00">sign_in_count :integer</text>
<text text-anchor="start" x="240.5" y="-226.3" font-family="Times,serif" font-size="14.00">current_sign_in_at :timestamp without time zone</text>
<text text-anchor="start" x="240.5" y="-211.3" font-family="Times,serif" font-size="14.00">last_sign_in_at :timestamp without time zone</text>
<text text-anchor="start" x="240.5" y="-196.3" font-family="Times,serif" font-size="14.00">current_sign_in_ip :inet</text>
<text text-anchor="start" x="240.5" y="-181.3" font-family="Times,serif" font-size="14.00">last_sign_in_ip :inet</text>
<text text-anchor="start" x="240.5" y="-166.3" font-family="Times,serif" font-size="14.00">created_at :timestamp without time zone</text>
<text text-anchor="start" x="240.5" y="-151.3" font-family="Times,serif" font-size="14.00">updated_at :timestamp without time zone</text>
</g>
<!-- User&#45;&gt;UserSong -->
<g id="edge3" class="edge"><title>User&#45;&gt;UserSong</title>
<path fill="none" stroke="#99e033" d="M399.772,-135.208C400.33,-128.983 400.878,-122.863 401.408,-116.949"/>
<ellipse fill="none" stroke="#99e033" cx="399.409" cy="-139.263" rx="4" ry="4"/>
<polygon fill="#99e033" stroke="#99e033" points="401.447,-116.509 406.821,-106.95 401.893,-111.528 402.339,-106.548 402.339,-106.548 402.339,-106.548 401.893,-111.528 397.857,-106.147 401.447,-116.509 401.447,-116.509"/>
</g>
</g>
</svg>
